<mxfile host="app.diagrams.net" agent="Mozilla/5.0 (Macintosh; Intel Mac OS X 10_15_7) AppleWebKit/537.36 (KHTML, like Gecko) Chrome/131.0.0.0 Safari/537.36" version="26.0.13">
  <diagram name="第 1 页" id="tatqiZ2zGNlUEYbh4u8T">
    <mxGraphModel dx="1026" dy="560" grid="1" gridSize="10" guides="1" tooltips="1" connect="1" arrows="1" fold="1" page="1" pageScale="1" pageWidth="827" pageHeight="1169" math="0" shadow="0">
      <root>
        <mxCell id="0" />
        <mxCell id="1" parent="0" />
        <mxCell id="QXfHrnDO144fRmaxGDok-1" value="主进程" style="rounded=0;whiteSpace=wrap;html=1;" vertex="1" parent="1">
          <mxGeometry x="160" y="290" width="430" height="210" as="geometry" />
        </mxCell>
        <mxCell id="QXfHrnDO144fRmaxGDok-2" value="RPC" style="rounded=0;whiteSpace=wrap;html=1;" vertex="1" parent="1">
          <mxGeometry x="180" y="410" width="120" height="60" as="geometry" />
        </mxCell>
        <mxCell id="QXfHrnDO144fRmaxGDok-3" value="Websocket" style="rounded=0;whiteSpace=wrap;html=1;" vertex="1" parent="1">
          <mxGeometry x="440" y="410" width="120" height="60" as="geometry" />
        </mxCell>
        <mxCell id="QXfHrnDO144fRmaxGDok-4" value="preload" style="rounded=0;whiteSpace=wrap;html=1;" vertex="1" parent="1">
          <mxGeometry x="180" y="318" width="380" height="30" as="geometry" />
        </mxCell>
        <mxCell id="QXfHrnDO144fRmaxGDok-5" value="" style="rounded=0;whiteSpace=wrap;html=1;" vertex="1" parent="1">
          <mxGeometry x="160" y="110" width="430" height="150" as="geometry" />
        </mxCell>
        <mxCell id="QXfHrnDO144fRmaxGDok-6" value="Live/Room Service" style="rounded=0;whiteSpace=wrap;html=1;" vertex="1" parent="1">
          <mxGeometry x="180" y="220" width="380" height="30" as="geometry" />
        </mxCell>
        <mxCell id="QXfHrnDO144fRmaxGDok-7" value="&lt;span style=&quot;color: rgb(0, 0, 0); font-family: Helvetica; font-size: 12px; font-style: normal; font-variant-ligatures: normal; font-variant-caps: normal; font-weight: 400; letter-spacing: normal; orphans: 2; text-align: center; text-indent: 0px; text-transform: none; widows: 2; word-spacing: 0px; -webkit-text-stroke-width: 0px; white-space: normal; background-color: rgb(251, 251, 251); text-decoration-thickness: initial; text-decoration-style: initial; text-decoration-color: initial; display: inline !important; float: none;&quot;&gt;渲染进程&lt;/span&gt;" style="text;whiteSpace=wrap;html=1;" vertex="1" parent="1">
          <mxGeometry x="170" y="111" width="80" height="40" as="geometry" />
        </mxCell>
        <mxCell id="QXfHrnDO144fRmaxGDok-8" value="" style="rounded=0;whiteSpace=wrap;html=1;" vertex="1" parent="1">
          <mxGeometry x="180" y="140" width="380" height="70" as="geometry" />
        </mxCell>
        <mxCell id="QXfHrnDO144fRmaxGDok-9" value="css" style="rounded=0;whiteSpace=wrap;html=1;" vertex="1" parent="1">
          <mxGeometry x="194" y="151" width="70" height="45" as="geometry" />
        </mxCell>
        <mxCell id="QXfHrnDO144fRmaxGDok-10" value="React" style="rounded=0;whiteSpace=wrap;html=1;" vertex="1" parent="1">
          <mxGeometry x="282" y="151" width="70" height="45" as="geometry" />
        </mxCell>
        <mxCell id="QXfHrnDO144fRmaxGDok-11" value="Store" style="rounded=0;whiteSpace=wrap;html=1;" vertex="1" parent="1">
          <mxGeometry x="373" y="151" width="70" height="45" as="geometry" />
        </mxCell>
        <mxCell id="QXfHrnDO144fRmaxGDok-16" value="" style="shape=flexArrow;endArrow=classic;startArrow=classic;html=1;rounded=0;exitX=0.5;exitY=0;exitDx=0;exitDy=0;" edge="1" parent="1" source="QXfHrnDO144fRmaxGDok-4">
          <mxGeometry width="100" height="100" relative="1" as="geometry">
            <mxPoint x="270" y="350" as="sourcePoint" />
            <mxPoint x="370" y="250" as="targetPoint" />
          </mxGeometry>
        </mxCell>
        <mxCell id="QXfHrnDO144fRmaxGDok-17" value="" style="shape=flexArrow;endArrow=classic;startArrow=classic;html=1;rounded=0;exitX=0.5;exitY=0;exitDx=0;exitDy=0;" edge="1" parent="1" source="QXfHrnDO144fRmaxGDok-2">
          <mxGeometry width="100" height="100" relative="1" as="geometry">
            <mxPoint x="239.5" y="400" as="sourcePoint" />
            <mxPoint x="240" y="350" as="targetPoint" />
          </mxGeometry>
        </mxCell>
        <mxCell id="QXfHrnDO144fRmaxGDok-18" value="" style="shape=flexArrow;endArrow=classic;startArrow=classic;html=1;rounded=0;exitX=0.5;exitY=0;exitDx=0;exitDy=0;" edge="1" parent="1" source="QXfHrnDO144fRmaxGDok-3">
          <mxGeometry width="100" height="100" relative="1" as="geometry">
            <mxPoint x="499.5" y="400" as="sourcePoint" />
            <mxPoint x="500" y="350" as="targetPoint" />
          </mxGeometry>
        </mxCell>
        <mxCell id="QXfHrnDO144fRmaxGDok-19" value="index" style="rounded=0;whiteSpace=wrap;html=1;" vertex="1" parent="1">
          <mxGeometry x="463" y="151.5" width="70" height="45" as="geometry" />
        </mxCell>
      </root>
    </mxGraphModel>
  </diagram>
</mxfile>
